<svg width="24" height="24" viewBox="0 0 24 24" fill="none" xmlns="http://www.w3.org/2000/svg">
<path d="M20.974 15.5556C20.3712 17.2238 19.3527 18.7145 18.0011 19.9068C16.6495 21.0992 15.0027 21.9598 13.1941 22.419C11.3854 22.8782 9.46576 22.923 7.59048 22.5498C5.7152 22.1766 3.93702 21.396 2.3999 20.271C4.97377 20.4397 7.49576 19.8308 9.599 18.5329C11.7022 17.2351 13.277 15.316 14.0943 13.0548C14.9115 10.7937 14.9286 8.30836 14.143 5.96044C13.3575 3.61251 11.8102 1.52446 9.7264 0C11.6253 0.124041 13.4893 0.667312 15.1674 1.58583C16.8456 2.50435 18.2908 3.77229 19.386 5.28702C20.4813 6.80175 21.1957 8.52068 21.4716 10.3046C21.7475 12.0886 21.577 13.8875 20.974 15.5556Z" fill="#121212"/>
</svg>
